<svg xmlns="http://www.w3.org/2000/svg" width="34mm" height="10mm" viewBox="0 0 96.37 28.35">
  <title>peb_d</title>
  <g>
    <path d="M117.74,68.75l-18-11.44A2.83,2.83,0,0,0,98,56.69H31.43a8.79,8.79,0,0,0-8.75,8.8V76.24A8.79,8.79,0,0,0,31.43,85H98a2.82,2.82,0,0,0,1.72-.58l18-10.88A2.83,2.83,0,0,0,117.74,68.75Z" transform="translate(-22.68 -56.69)" style="fill: #fff"/>
    <path d="M98,59.53H79.37V82.21H98v0l18.25-11L98,59.55v0Z" transform="translate(-22.68 -56.69)" style="fill: #ebe216"/>
    <path d="M31.43,59.53a5.94,5.94,0,0,0-5.91,6V76.24a5.94,5.94,0,0,0,5.91,6H76.54V59.53H31.43Z" transform="translate(-22.68 -56.69)" style="fill: #47535b"/>
    <g>
      <path d="M44.41,69.65a2.23,2.23,0,0,1-1.53,2.15,7.63,7.63,0,0,1-2.85.48H33.55v2.9a0.55,0.55,0,0,1-.4.59,3,3,0,0,1-.81.05,0.57,0.57,0,0,1-.65-0.64V66.54a0.57,0.57,0,0,1,.65-0.63h7.77a7.5,7.5,0,0,1,2.68.42,2,2,0,0,1,1.62,1.79v1.54m-1.85-.06V68.24q0-.86-2.44-0.86H33.55v3.41h6.59Q42.57,70.79,42.56,69.59Z" transform="translate(-22.68 -56.69)" style="fill: #fff"/>
      <path d="M56.67,70.87a0.66,0.66,0,0,1-.7.79H47v1.63q0,1.05,2.39,1.05H56a0.57,0.57,0,0,1,.65.64,0.68,0.68,0,0,1-.65.85H49.3a6.93,6.93,0,0,1-2.68-.5,2.12,2.12,0,0,1-1.5-2V68.43a1.93,1.93,0,0,1,.5-1.29q1.08-1.24,3.84-1.24h1.82a0.67,0.67,0,0,1,.65.83,0.57,0.57,0,0,1-.65.64H50Q47,67.36,47,68.43v1.74h9a0.61,0.61,0,0,1,.69.7" transform="translate(-22.68 -56.69)" style="fill: #fff"/>
      <path d="M70.36,73.19A2.23,2.23,0,0,1,69,75.3a6.13,6.13,0,0,1-2.7.53H58.35a0.57,0.57,0,0,1-.65-0.64V66.54a0.57,0.57,0,0,1,.65-0.63h7.8a10.47,10.47,0,0,1,1.91.16,3.52,3.52,0,0,1,1.58.81,2,2,0,0,1,.71,1.53,7.94,7.94,0,0,1-.07,1.22,1.28,1.28,0,0,1-.11.24l-0.25.43a3.25,3.25,0,0,0-.31.58,3.5,3.5,0,0,0,.31.51c0.11,0.16.19,0.29,0.25,0.4a1,1,0,0,1,.11.25,2.57,2.57,0,0,1,0,.41c0,0.19,0,.43,0,0.73m-1.86-.5q0-1-2.31-1H59.56v2.68h6.5c1.51,0,2.32-.31,2.42-0.94a1.89,1.89,0,0,0,0-.23C68.5,73.05,68.5,72.89,68.5,72.68Zm0-3.44c0-.18,0-0.46,0-0.83q-0.08-1-2.42-1H59.6v2.79h6.55Q68.55,70.17,68.55,69.25Z" transform="translate(-22.68 -56.69)" style="fill: #fff"/>
    </g>
    <path d="M96.14,74.88a3.62,3.62,0,0,1-2.62.95H89.94V65.91h3.58a3.62,3.62,0,0,1,2.62.95c1.11,1.12,1,2.48,1,4S97.25,73.77,96.14,74.88Zm-1.35-6.63a1.73,1.73,0,0,0-1.45-.62H91.88V74.1h1.46a1.73,1.73,0,0,0,1.45-.61c0.36-.45.42-1.16,0.42-2.66S95.15,68.69,94.79,68.25Z" transform="translate(-22.68 -56.69)" style="fill: #1a171b"/>
  </g>
</svg>
