<?xml version="1.0" encoding="utf-8"?>
<!-- Generator: Adobe Illustrator 19.2.0, SVG Export Plug-In . SVG Version: 6.00 Build 0)  -->
<svg version="1.1" id="Ebene_1" xmlns="http://www.w3.org/2000/svg" xmlns:xlink="http://www.w3.org/1999/xlink" x="0px" y="0px"
	 viewBox="0 0 360 60" style="enable-background:new 0 0 360 60;"  width="360" height="60" xml:space="preserve">
<style type="text/css">
	.st0{fill:#CCCACC;}
	.st1{fill:#EF9230;}
	.st2{fill:#3C3C3B;}
</style>
<g>
	<polygon id="XMLID_27_" class="st0" points="48.1,30.5 38.4,51.3 43.7,30.5 38.4,9.4 	"/>
	<path id="XMLID_169_" class="st1" d="M42.1,30.6L37.1,9.1c-2.8-1.1-5.9-1.7-9.4-1.7c-6.8,0-12.2,2.1-16.4,6.3S5,23.5,5,30.3
		c0,6.8,2.1,12.3,6.3,16.5s9.6,6.3,16.4,6.3c3.5,0,6.6-0.6,9.4-1.7L42.1,30.6z M27.6,40.1c-2,0-3.7-0.9-4.9-2.6s-1.8-4.1-1.8-7
		s0.7-5.3,1.9-7c1.3-1.8,2.9-2.7,4.9-2.7c2.1,0,3.8,0.9,4.9,2.7c1.3,1.8,1.8,4.2,1.8,7.2c0,2.8-0.7,5.1-1.9,6.9
		C31.3,39.2,29.6,40.1,27.6,40.1"/>
	<g>
		<path id="XMLID_148_" class="st1" d="M54,29.4c0-2.6,0.3-4.5,1-5.7c0.7-1.2,1.7-1.9,3.3-2.2c1.1-0.2,3-0.3,5.8-0.3h3.1h3.1
			c2.1,0,3.7,0.3,4.7,1.1c0.9,0.7,1.5,1.6,1.8,3.1c0.2,1,0.3,2.6,0.3,4.9v0.5c0,0.9,0,1.4-0.1,1.8c0,0.3-0.1,0.9-0.1,1.4
			c-0.2,1.3-0.5,2.4-0.9,3.2c-0.5,0.9-1.4,1.5-2.6,1.8c-0.6,0.2-1.3,0.3-2,0.3c-0.7,0.1-1.6,0.1-2.4,0.1h-3.4H62h-0.5
			c-1.1,0-1.9,0-2.4-0.1S58,39.2,57.5,39c-1.4-0.5-2.5-1.4-3-3.1c-0.3-1.1-0.5-2.6-0.5-4.6L54,29.4L54,29.4z M74.6,31v-1.1v-1.5
			c0-1.9-0.2-3.2-0.7-3.9C73.4,23.6,72,23,70,23h-4.9c-0.7,0-1.4,0-2.1,0.1c-0.7,0.1-1.5,0.1-2.4,0.1c-0.6,0-1.1,0-1.5,0.1
			s-0.8,0.2-1.2,0.4c-0.7,0.4-1.1,1.2-1.4,2.5c-0.1,0.7-0.2,1.7-0.2,3v1.1c0,0.5,0,0.9,0,1.4c0,0.5,0,0.9,0.1,1.4
			c0,1,0.1,1.8,0.4,2.4c0.3,0.8,0.9,1.4,1.8,1.6c0.4,0.1,0.9,0.3,1.6,0.3c0.6,0.1,1.3,0.1,2.1,0.1h5.1c3.3,0,5.3-0.3,6-0.8
			C74.1,36.1,74.6,34.2,74.6,31"/>
		<path id="XMLID_22_" class="st1" d="M81.6,33.7L81.6,34v0.3c0,0.5,0.1,0.9,0.2,1.3c0.1,0.5,0.3,0.8,0.7,1c0.3,0.3,0.9,0.4,1.9,0.6
			c1,0.1,2.2,0.2,3.8,0.2h1.6h1.1h1.1h0.3c0.8,0,1.6-0.1,2.6-0.2s1.6-0.3,2.1-0.7c0.5-0.5,0.8-1.2,0.8-2.2c0-1.3-0.3-2.1-1-2.5
			c-0.5-0.3-1.4-0.5-2.8-0.5c-1,0-2.4,0-4.1-0.1c-1.7-0.1-2.9-0.1-3.4-0.1c-2.2,0-3.8-0.2-4.7-0.6c-1.5-0.7-2.3-1.9-2.3-3.8
			c0-1.2,0.1-2.1,0.4-2.8c0.3-0.9,1-1.5,2-2c0.5-0.4,1.6-0.6,3.4-0.7c1.8-0.1,3.4-0.1,4.7-0.1c1.7,0,3,0,4.1,0.1
			c1.8,0.2,3.1,0.5,3.8,1c0.6,0.5,1,1.1,1.3,1.8c0.2,0.6,0.3,1.3,0.3,2.2h-2.2v-0.1c0-1.3-0.5-2.2-1.5-2.6c-0.7-0.3-1.7-0.5-3.1-0.5
			h-0.9h-5.5c-1.4,0-2.5,0.2-3.1,0.5c-0.8,0.5-1.2,1.4-1.2,2.8c0,1.1,0.5,1.8,1.6,2.2c0.7,0.3,1.8,0.4,3.3,0.4h0.8h0.6
			c0.6,0,1.6,0,2.8,0.1c1.3,0.1,2.2,0.1,2.8,0.1c2,0,3.4,0.3,4.3,0.9c1.1,0.7,1.6,2,1.6,4c0,2.1-0.7,3.6-2.2,4.4
			c-1.1,0.6-2.8,0.9-5.1,0.9H90c-1.8,0-3.6-0.1-5-0.1c-1.4-0.1-2.5-0.3-3.2-0.6c-1-0.5-1.6-1.1-2-2c-0.3-0.7-0.5-1.6-0.5-2.8
			l0.1-0.2L81.6,33.7L81.6,33.7z"/>
		<polygon id="XMLID_21_" class="st1" points="102.4,21.5 122.6,21.5 122.6,23.4 113.6,23.4 113.6,39.3 111.4,39.3 111.4,23.4 
			102.4,23.4 		"/>
	</g>
	<g>
		<path id="XMLID_142_" class="st2" d="M128,21.5h15.8c1.3,0,2.4,0.4,3.1,1.1c0.7,0.8,1.1,1.8,1.1,3.1c0,1.2-0.1,2-0.4,2.5
			c-0.3,0.5-0.9,1-2,1.6c1.1,0,2,0.5,2.4,1.4c0.4,0.8,0.6,1.8,0.6,3c0,1.5-0.5,2.8-1.3,3.6c-0.9,0.9-2,1.3-3.6,1.3h-15.8L128,21.5
			L128,21.5z M142.6,29.2c1.1,0,1.8-0.2,2.3-0.7c0.5-0.5,0.7-1.2,0.7-2.2c0-1.2-0.3-2-0.8-2.4c-0.5-0.5-1.4-0.7-2.6-0.7h-12.1v5.9
			H142.6z M146.4,34.3c0-1.4-0.3-2.2-0.9-2.7c-0.5-0.5-1.5-0.7-2.9-0.7h-12.5v6.5l12.9-0.1c1.1,0,2-0.3,2.5-0.7
			C146.1,36.3,146.4,35.4,146.4,34.3"/>
		<polygon id="XMLID_17_" class="st2" points="152.3,21.5 170.2,21.5 170.2,23.3 154.5,23.3 154.5,29.2 169.7,29.2 169.7,31 
			154.5,31 154.5,37.5 170.4,37.5 170.4,39.4 152.3,39.4 		"/>
		<polygon id="XMLID_16_" class="st2" points="174.6,21.5 176.8,21.5 176.8,37.4 190.8,37.4 190.8,39.3 174.6,39.3 		"/>
		<path id="XMLID_15_" class="st2" d="M214.1,26.7c0-1.4-0.3-2.3-0.8-2.8c-0.5-0.5-1.5-0.7-2.9-0.7c-1.1,0-1.9,0-2.6,0
			c-2.6-0.1-4.1-0.1-4.3-0.1c-0.9,0-1.9,0.1-3,0.1c-1.1,0.1-1.8,0.2-2.2,0.3c-0.7,0.3-1.3,0.8-1.5,1.5c-0.2,0.5-0.3,1.3-0.3,2.2v6.5
			c0,1.4,0.3,2.3,1.1,2.8c0.6,0.5,1.6,0.8,3,0.8h9.4c1.8,0,3-0.5,3.6-1.3c0.5-0.7,0.7-2,0.7-3.9h-9.3v-1.6h11.5v0.9
			c0,0.3,0,0.8-0.1,1.6c0,0.7-0.1,1.1-0.1,1.2c0,3.5-1.8,5.2-5.3,5.2c-0.7,0-1.8,0-3.4,0.1c-1.5,0.1-2.6,0.1-3.4,0.1
			c-1.5,0-3-0.1-4.2-0.1c-1.3-0.1-2.3-0.3-3-0.5c-1.3-0.5-2.2-1.6-2.6-3c-0.3-0.9-0.5-2.4-0.5-4.2v-1.3c0-2.1,0.1-3.6,0.2-4.5
			c0.3-1.4,0.7-2.6,1.4-3.3c0.9-0.9,2.3-1.3,4.1-1.3c0.7,0,1.8,0,3.3-0.1s2.6-0.1,3.3-0.1c0.5,0,1.1,0,2,0.1s1.5,0.1,2,0.1
			c2,0.2,3.5,0.6,4.3,1.3c1,0.8,1.5,2.2,1.5,4.1H214.1z"/>
		<rect id="XMLID_14_" x="220.1" y="21.5" class="st2" width="2.2" height="17.8"/>
		<polygon id="XMLID_13_" class="st2" points="228,21.5 245.9,21.5 245.9,23.3 230.2,23.3 230.2,29.2 245.5,29.2 245.5,31 230.2,31 
			230.2,37.5 246.1,37.5 246.1,39.4 228,39.4 		"/>
		<path id="XMLID_12_" class="st2" d="M250.3,21.5h3.3l16.3,16.2V21.5h2.2v17.9h-3.6c-0.6-0.7-1.3-1.4-2.1-2.3
			c-0.6-0.6-1.3-1.3-2.2-2.2c-1.3-1.2-2-1.9-2.3-2.2c-1.3-1.3-2.3-2.3-3.1-3.1c-1.3-1.3-2.4-2.4-3.2-3.1c-0.5-0.5-1.5-1.4-3.2-3
			v15.8h-2.2L250.3,21.5L250.3,21.5z"/>
	</g>
	<g>
		<rect id="XMLID_11_" x="277.7" y="36.4" class="st0" width="2.9" height="3.1"/>
		<path id="XMLID_10_" class="st0" d="M286.4,21.2h3.4l16.7,16.5V21.2h2.2v18.2H305c-0.6-0.7-1.3-1.5-2.2-2.3
			c-0.6-0.6-1.4-1.3-2.3-2.2c-1.3-1.3-2-2-2.3-2.2c-1.3-1.3-2.4-2.4-3.2-3.2c-1.4-1.3-2.4-2.4-3.2-3.2c-0.5-0.5-1.6-1.5-3.3-3v16.1
			h-2.2L286.4,21.2L286.4,21.2z"/>
		<polygon id="XMLID_9_" class="st0" points="313.3,21.2 331.5,21.2 331.5,23.1 315.4,23.1 315.4,29.2 331,29.2 331,30.9 
			315.4,30.9 315.4,37.6 331.6,37.6 331.6,39.5 313.3,39.5 		"/>
		<polygon id="XMLID_8_" class="st0" points="334.5,21.3 355,21.3 355,23.2 345.9,23.2 345.9,39.4 343.7,39.4 343.7,23.2 
			334.5,23.2 		"/>
	</g>
	<g>
		<g>
			<path class="st2" d="M53.9,6.9h7.4c0.8,0,1.4,0.2,1.8,0.7c0.3,0.4,0.4,1.1,0.4,1.9c0,0.9-0.2,1.5-0.6,1.9c-0.4,0.4-1,0.6-1.8,0.6
				H55v3.4h-1.1V6.9z M60.9,11.3c0.6,0,1-0.2,1.2-0.5c0.2-0.3,0.3-0.7,0.3-1.3c0-0.7-0.1-1.1-0.4-1.3c-0.2-0.2-0.7-0.3-1.4-0.3H55
				v3.5H60.9z"/>
			<path class="st2" d="M64.5,10.8c0-1.3,0.2-2.2,0.5-2.7c0.3-0.5,0.8-0.9,1.6-1c0.5-0.1,1.4-0.2,2.7-0.2c0.3,0,0.8,0,1.5,0
				c0.7,0,1.1,0,1.5,0c1,0,1.8,0.2,2.2,0.5c0.4,0.3,0.7,0.8,0.8,1.5c0.1,0.5,0.1,1.2,0.1,2.3v0.2c0,0.4,0,0.7,0,0.9
				c0,0.2,0,0.4-0.1,0.7c-0.1,0.6-0.2,1.1-0.4,1.5c-0.3,0.4-0.7,0.7-1.2,0.9c-0.3,0.1-0.6,0.1-1,0.2c-0.4,0-0.7,0-1.2,0
				c-0.4,0-0.9,0-1.6,0c-0.7,0-1.3,0-1.6,0H68c-0.5,0-0.9,0-1.1,0c-0.2,0-0.5-0.1-0.7-0.2c-0.7-0.2-1.2-0.7-1.4-1.5
				c-0.2-0.5-0.3-1.2-0.3-2.2V10.8z M74.3,11.5V11v-0.7c0-0.9-0.1-1.5-0.3-1.8c-0.3-0.5-0.9-0.7-1.9-0.7l-2.3,0c-0.4,0-0.7,0-1,0
				c-0.3,0-0.7,0-1.2,0.1c-0.3,0-0.5,0-0.7,0c-0.2,0-0.4,0.1-0.6,0.2c-0.3,0.2-0.5,0.6-0.7,1.2c-0.1,0.3-0.1,0.8-0.1,1.4v0.5
				c0,0.2,0,0.4,0,0.7c0,0.2,0,0.4,0,0.7c0,0.5,0.1,0.9,0.2,1.1c0.2,0.4,0.4,0.6,0.8,0.8c0.2,0.1,0.4,0.1,0.7,0.1c0.3,0,0.6,0,1,0
				h2.4c1.6,0,2.5-0.1,2.8-0.4C74.1,14,74.3,13,74.3,11.5z"/>
			<path class="st2" d="M77.1,7c0.7,1.4,1.3,2.7,2,4.1c0.6,1.2,1.1,2.4,1.7,3.6c0.2-0.5,0.4-1.1,0.7-1.7c0.3-0.8,0.6-1.4,0.8-1.7
				c0.2-0.4,0.4-0.9,0.7-1.6c0.5-1.1,0.9-2,1.2-2.7h1.4l1.9,4.2c0,0.1,0.3,0.7,0.8,1.7c0.3,0.7,0.6,1.3,0.7,1.7
				c0.3-0.8,0.7-1.6,1.2-2.6c0.2-0.5,0.6-1.3,1.2-2.6c0.7-1.3,1.1-2.2,1.2-2.6h1.2l-4.1,8.5h-1.4c-0.2-0.6-0.6-1.5-1.1-2.6
				c-0.6-1.4-1-2.3-1.2-2.6c-0.4-1-0.8-1.9-1.1-2.6c-0.2,0.5-0.4,1.1-0.7,1.8c-0.4,0.8-0.6,1.4-0.8,1.8l-1.8,4.1h-1.4L75.9,7H77.1z"
				/>
			<path class="st2" d="M94.9,6.9h8.5v0.9h-7.5v2.8h7.3v0.9h-7.3v3.1h7.5v0.9h-8.6V6.9z"/>
			<path class="st2" d="M105.4,6.9h7.2c0.9,0,1.6,0.2,2,0.6c0.4,0.4,0.6,1,0.6,2c0,0.6-0.1,1.1-0.2,1.4c-0.2,0.3-0.5,0.6-1.1,0.8
				c0.4,0.1,0.8,0.3,0.9,0.6c0.2,0.3,0.3,0.6,0.3,1.1v2.1h-1v-1.5c0-0.8-0.1-1.3-0.3-1.5c-0.2-0.3-0.7-0.4-1.5-0.4h-5.8v3.5h-1.1
				V6.9z M114.2,9.5c0-0.7-0.2-1.2-0.5-1.5c-0.3-0.2-0.8-0.3-1.5-0.3h-5.6v3.4l5.8,0c0.7,0,1.1-0.1,1.4-0.3
				C114,10.6,114.2,10.2,114.2,9.5z"/>
			<path class="st2" d="M117,6.9h8.5v0.9H118v2.8h7.3v0.9H118v3.1h7.5v0.9H117V6.9z"/>
			<path class="st2" d="M127.5,7h6.9c1,0,1.8,0.2,2.3,0.6c0.5,0.4,0.8,0.9,0.9,1.6c0.1,0.5,0.2,1.3,0.2,2.4c0,1.2-0.2,2.2-0.6,2.7
				c-0.5,0.7-1.3,1.1-2.5,1.1h-7.2V7z M134.1,14.6c1.2,0,1.9-0.3,2.3-0.9c0.3-0.4,0.4-1.3,0.4-2.5c0-1.2-0.1-2-0.3-2.4
				c-0.3-0.6-1-1-2.1-1h-5.7v6.7H134.1z"/>
			<path class="st2" d="M144.1,7l7.5,0c0.6,0,1.1,0.2,1.5,0.5c0.4,0.4,0.5,0.9,0.5,1.5c0,0.6-0.1,1-0.2,1.2
				c-0.1,0.2-0.4,0.5-0.9,0.8c0.5,0,0.9,0.2,1.2,0.7c0.2,0.4,0.3,0.8,0.3,1.4c0,0.7-0.2,1.3-0.6,1.7c-0.4,0.4-1,0.6-1.7,0.6h-7.5V7z
				 M151.1,10.6c0.5,0,0.9-0.1,1.1-0.3c0.2-0.2,0.4-0.6,0.4-1c0-0.6-0.1-1-0.4-1.2c-0.2-0.2-0.7-0.3-1.3-0.3h-5.8v2.8H151.1z
				 M152.8,13.1c0-0.6-0.1-1.1-0.4-1.3c-0.3-0.2-0.7-0.3-1.4-0.3h-5.9v3.1l6.1,0c0.5,0,0.9-0.1,1.2-0.3
				C152.7,14,152.8,13.6,152.8,13.1z"/>
			<path class="st2" d="M156.3,7l3.9,4l3.9-4h1.5c-0.4,0.4-0.7,0.7-1,1c-0.5,0.5-0.9,0.9-1,1c-0.1,0.1-0.5,0.5-1,0.9
				c-0.3,0.2-0.5,0.5-0.8,0.7c-0.3,0.3-0.5,0.5-0.7,0.8c-0.1,0.1-0.1,0.2-0.2,0.2c-0.1,0.1-0.1,0.2-0.2,0.2v3.6h-1.1v-3.6L154.8,7
				L156.3,7z"/>
		</g>
	</g>
</g>
</svg>
